<svg xmlns="http://www.w3.org/2000/svg" width="500" height="300" viewBox="0 0 500 300"><rect width="500" height="300" fill="#c1272d"/><path d="M397.26,178.23A13.69,13.69,0,1,0,383.66,192a13.61,13.61,0,0,0,13.6-13.77" fill="#fff"/><polygon points="292.57 189.54 357.62 189.54 357.62 170.65 314.55 170.65 314.55 157.93 353.03 157.93 353.03 140.41 314.55 140.41 314.55 128.14 357.05 128.14 357.05 109.37 292.57 109.37 292.57 189.54" fill="#fff"/><path d="M140.31,190.91c19.47,0,32.41-9.72,32.41-26.1v-.23c0-15-11.45-21-29.77-25-11.24-2.51-14-4.12-14-7.79v-.23c0-3,2.64-5.15,8-5.15,7.11,0,15.13,2.63,22.46,7.9l11.1-15.69c-8.7-7-19.35-10.64-33-10.64-19.24,0-31,10.76-31,25.64v.24c0,16.38,13.17,21.19,30.24,25.09,11,2.63,13.64,4.35,13.64,7.79V167c0,3.43-3.22,5.49-9.29,5.49-9.28,0-18-3.31-26-9.62l-12.37,14.78c10,8.81,23.36,13.27,37.57,13.27" fill="#fff"/><path d="M203,149.23V128h10.54c7.91,0,12.84,3.55,12.84,10.43v.23c0,6.3-4.93,10.54-12.72,10.54Zm-22.21,40.31H203V166.63h11.12c19.82,0,34.35-10,34.35-29v-.23c0-17.64-13-28.06-33.21-28.06H180.82Z" fill="#fff"/><rect x="256.41" y="109.37" width="22.2" height="80.16" fill="#fff"/></svg>